<?xml version="1.0" encoding="UTF-8" standalone="no" ?>
<!DOCTYPE svg PUBLIC "-//W3C//DTD SVG 1.1//EN" "http://www.w3.org/Graphics/SVG/1.1/DTD/svg11.dtd">
<svg xmlns="http://www.w3.org/2000/svg" xmlns:xlink="http://www.w3.org/1999/xlink" version="1.1" width="500" height="500" viewBox="0 0 500 500" xml:space="preserve">
<desc>Created with Fabric.js 4.6.0</desc>
<defs>
</defs>
<g transform="matrix(2.21 0 0 2.21 250 250)" id="JSrFBucn4gi8rro1cX5Fr"  >
<path style="stroke: rgb(200,118,144); stroke-width: 0; stroke-dasharray: none; stroke-linecap: butt; stroke-dashoffset: 0; stroke-linejoin: miter; stroke-miterlimit: 4; fill: rgb(0,0,0); fill-rule: nonzero; opacity: 1;" vector-effect="non-scaling-stroke"  transform=" translate(0, 0)" d="M 0 -25.10121 C 13.85587 -25.10121 25.10121 -13.855869999999998 25.10121 0 C 25.10121 13.85587 13.855869999999998 25.10121 0 25.10121 C -13.85587 25.10121 -25.10121 13.855869999999998 -25.10121 0 C -25.10121 -13.85587 -13.855869999999998 -25.10121 0 -25.10121 z" stroke-linecap="round" />
</g>
<g transform="matrix(1 0 0 1 276.62 263.77)" id="2ZzByybkGBO3dEzsluRjD"  >
<path style="stroke: rgb(0,0,0); stroke-width: 1; stroke-dasharray: none; stroke-linecap: butt; stroke-dashoffset: 0; stroke-linejoin: miter; stroke-miterlimit: 4; fill: rgb(255,255,255); fill-opacity: 0; fill-rule: nonzero; opacity: 1;" vector-effect="non-scaling-stroke"  transform=" translate(0, 0)" d="M 0 0" stroke-linecap="round" />
</g>
<g transform="matrix(1 0 0 1 368.75 276.69)" id="Qnn89LrTt4ZQwrLiByw8C"  >
<path style="stroke: rgb(0,0,0); stroke-width: 1; stroke-dasharray: none; stroke-linecap: butt; stroke-dashoffset: 0; stroke-linejoin: miter; stroke-miterlimit: 4; fill: rgb(0,0,0); fill-rule: nonzero; opacity: 1;" vector-effect="non-scaling-stroke"  transform=" translate(0, 0)" d="M -116.52092 28.87989 C -88.5857 27.26046 -97.08772 20.07421 -57.006750000000004 -3.0027100000000004 C -16.925780000000003 -26.07963 117.08231999999998 -23.85291 121.94062 -24.66263 C 126.79892 -25.47235 134.89609 -28.91364 121.94062 -28.91364 C 108.98514999999999 -28.91364 -116.52092000000002 -26.68692 -116.52092000000002 -26.68692 C -116.52092000000002 -26.68692 -144.45614 30.499319999999997 -116.52092000000002 28.879889999999996 z" stroke-linecap="round" />
</g>
<g transform="matrix(-1 0 0 1 128.02 276.69)" id="H77A8r8WxU6P1lFn99v6w"  >
<path style="stroke: rgb(0,0,0); stroke-width: 1; stroke-dasharray: none; stroke-linecap: butt; stroke-dashoffset: 0; stroke-linejoin: miter; stroke-miterlimit: 4; fill: rgb(0,0,0); fill-rule: nonzero; opacity: 1;" vector-effect="non-scaling-stroke"  transform=" translate(0, 0)" d="M -116.52092 28.87989 C -88.5857 27.26046 -97.08772 20.07421 -57.006750000000004 -3.0027100000000004 C -16.925780000000003 -26.07963 117.08231999999998 -23.85291 121.94062 -24.66263 C 126.79892 -25.47235 134.89609 -28.91364 121.94062 -28.91364 C 108.98514999999999 -28.91364 -116.52092000000002 -26.68692 -116.52092000000002 -26.68692 C -116.52092000000002 -26.68692 -144.45614 30.499319999999997 -116.52092000000002 28.879889999999996 z" stroke-linecap="round" />
</g>
<g transform="matrix(1.43 0 0 1.43 129.64 276.69)" id="ZyjPesnU5PQNmpZHjpiq2"  >
<path style="stroke: rgb(155,221,177); stroke-width: 0; stroke-dasharray: none; stroke-linecap: butt; stroke-dashoffset: 0; stroke-linejoin: miter; stroke-miterlimit: 4; fill: rgb(0,0,0); fill-rule: nonzero; opacity: 1;" vector-effect="non-scaling-stroke"  transform=" translate(0, 0)" d="M 0 -17.61134 C 9.72146 -17.61134 17.61134 -9.721459999999999 17.61134 0 C 17.61134 9.72146 9.721459999999999 17.61134 0 17.61134 C -9.72146 17.61134 -17.61134 9.721459999999999 -17.61134 0 C -17.61134 -9.72146 -9.721459999999999 -17.61134 0 -17.61134 z" stroke-linecap="round" />
</g>
<g transform="matrix(1.43 0 0 1.43 368.75 276.69)" id="wFUmTtNEdvt1lAUrbXTNL"  >
<path style="stroke: rgb(155,221,177); stroke-width: 0; stroke-dasharray: none; stroke-linecap: butt; stroke-dashoffset: 0; stroke-linejoin: miter; stroke-miterlimit: 4; fill: rgb(0,0,0); fill-rule: nonzero; opacity: 1;" vector-effect="non-scaling-stroke"  transform=" translate(0, 0)" d="M 0 -17.61134 C 9.72146 -17.61134 17.61134 -9.721459999999999 17.61134 0 C 17.61134 9.72146 9.721459999999999 17.61134 0 17.61134 C -9.72146 17.61134 -17.61134 9.721459999999999 -17.61134 0 C -17.61134 -9.72146 -9.721459999999999 -17.61134 0 -17.61134 z" stroke-linecap="round" />
</g>
<g transform="matrix(1 0 0 1 250 164.28)" id="PCXHwkwyh5fk5Yixg4fh8"  >
<path style="stroke: rgb(0,0,0); stroke-width: 1; stroke-dasharray: none; stroke-linecap: butt; stroke-dashoffset: 0; stroke-linejoin: miter; stroke-miterlimit: 4; fill: rgb(0,0,0); fill-rule: nonzero; opacity: 1;" vector-effect="non-scaling-stroke"  transform=" translate(0, 0)" d="M -5 41.5 L 0 -41.5 L 5 41.5 z" stroke-linecap="round" />
</g>
<g transform="matrix(1 0 0 1 250 215.74)" id="KwghEVC8iF4meNxPuz3xX"  >
<path style="stroke: rgb(0,0,0); stroke-width: 1; stroke-dasharray: none; stroke-linecap: butt; stroke-dashoffset: 0; stroke-linejoin: miter; stroke-miterlimit: 4; fill: rgb(0,0,0); fill-rule: nonzero; opacity: 1;" vector-effect="non-scaling-stroke"  transform=" translate(0, 0)" d="M -149.48786 -4.09905 L 0 4.09905 L 149.48786 -4.09905 L 0 -4.09905 z" stroke-linecap="round" />
</g>
</svg>